<svg xmlns="http://www.w3.org/2000/svg" id="contourPlot" version="1.1" viewBox="0 0 500 500" preserveAspectRatio="xMidYMid slice"><style id="background-contour-animation">
  :root {
    --contour-blue: #133b6b;
  }

  polyline {
    fill: none;
    stroke: var(--contour-blue) !important;
    stroke-width: 0.38 !important;
    stroke-linecap: round;
    stroke-linejoin: round;
    vector-effect: non-scaling-stroke;
    stroke-dasharray: 0 0.5 0 0.5;
    stroke-dashoffset: 0.25;
    opacity: 0;
    animation: contour-draw 10s cubic-bezier(0.58, 0, 0.16, 1) var(--contour-delay, 0s) both;
  }

  rect,
  text {
    display: none;
  }

  @keyframes contour-draw {
    0% {
      opacity: 0;
      stroke-dasharray: 0 0.5 0 0.5;
      stroke-dashoffset: 0.25;
    }

    12% {
      opacity: 0.96;
    }

    72%,
    100% {
      opacity: 0.96;
      stroke-dasharray: 0.5 0 0.5 0;
      stroke-dashoffset: 0.25;
    }
  }

  @media (prefers-reduced-motion: reduce) {
    polyline {
      animation: none;
      opacity: 0.9;
      stroke-dasharray: none;
      stroke-dashoffset: 0;
    }
  }
</style><polyline fill="none" stroke="#133b6b" stroke-width="0.38" points="0.000,147.409 6.883,138.462 11.307,131.579 19.948,125.212 26.316,118.446 37.417,116.365 42.078,115.816 52.632,114.058 59.827,112.459 78.907,105.304 78.947,105.292 78.973,105.288 79.049,105.263 98.498,98.498 105.263,97.773 111.431,99.095 127.562,101.246 131.579,101.999 135.309,101.533 154.164,101.533 157.895,100.911 168.340,94.818 171.850,92.903 184.211,84.251 187.525,82.262 190.840,78.947 204.072,72.493 210.526,69.104 218.661,60.766 224.546,52.632 230.628,46.417 236.842,41.517 245.625,35.099 259.427,26.316 261.955,25.112 263.158,24.502 266.267,23.207 280.623,17.465 289.474,13.560 299.551,10.077 311.580,4.209 315.789,2.411 317.618,1.829 321.093,0.000" pathLength="1" style="--contour-delay:0.621s;--contour-undraw-delay:0.831s"></polyline><polyline fill="none" stroke="#133b6b" stroke-width="0.38" points="478.001,0.000 475.737,2.053 473.684,4.978 461.846,14.478 456.602,26.316 451.608,30.555 447.368,35.171 436.931,36.753 431.931,37.194 421.053,39.111 411.535,43.114 402.929,52.632 399.293,57.188 394.737,61.188 383.336,67.547 369.917,78.947 368.963,79.489 368.421,80.348 366.719,80.650 361.121,78.947 345.434,75.618 342.105,74.950 336.129,72.971 325.819,68.918 315.789,66.159 302.745,65.676 302.499,65.657 289.474,65.136 281.788,71.262 277.079,78.947 276.583,91.838 276.527,92.316 276.105,105.263 272.154,114.259 263.158,121.806 257.661,126.082 254.781,131.579 247.079,141.816 236.842,147.958 230.312,151.365 224.814,157.895 217.623,164.992 210.526,168.177 198.769,172.453 188.368,180.053 184.211,182.679 183.035,183.035 180.977,184.211 165.484,191.799 157.895,194.796 147.540,194.565 141.003,193.635 131.579,193.369 126.464,189.326 123.467,184.211 113.406,176.068 105.263,173.130 96.754,175.701 89.234,184.211 84.099,189.362 78.947,190.115 71.410,191.748 59.840,191.419 52.632,194.402 44.555,202.450 39.038,210.526 31.934,216.144 26.316,221.523 17.441,227.967 11.729,236.842 5.454,242.296 0.000,246.972" pathLength="1" style="--contour-delay:0.122s;--contour-undraw-delay:1.041s"></polyline><polyline fill="none" stroke="#133b6b" stroke-width="0.38" points="123.199,236.842 126.678,241.744 131.579,245.015 135.427,240.690 139.427,236.842 138.434,229.987 131.579,224.164 125.030,230.293 123.199,236.842" pathLength="1" style="--contour-delay:1.666s;--contour-undraw-delay:0.392s"></polyline><polyline fill="none" stroke="#133b6b" stroke-width="0.38" points="500.000,1.348 487.015,13.331 477.283,26.316 476.047,28.679 473.684,30.039 461.567,40.514 450.332,52.632 448.727,53.990 447.368,54.827 442.888,57.112 428.609,60.188 421.053,75.655 419.631,77.526 417.966,78.947 401.933,86.143 394.737,88.356 384.732,95.258 377.346,105.263 372.489,109.331 368.421,111.472 355.371,118.529 346.355,131.579 344.193,133.666 342.105,134.774 336.985,136.699 321.769,137.559 315.789,144.521 308.035,150.140 304.889,157.895 295.512,163.933 289.474,170.464 278.986,173.723 268.886,184.211 265.788,186.841 263.158,192.442 250.717,198.085 242.680,204.689 236.842,209.132 236.141,209.825 235.884,210.526 234.381,212.987 228.599,228.599 212.551,234.818 210.526,236.079 209.867,236.183 205.567,236.842 186.352,238.983 184.211,238.999 181.160,239.893 166.891,245.838 157.895,247.689 150.020,255.284 142.955,263.158 137.537,269.116 131.579,273.286 120.983,273.754 112.664,270.559 105.263,271.417 101.041,267.380 85.410,263.158 80.960,261.146 78.947,260.705 67.081,248.709 57.991,236.842 55.962,233.511 52.632,233.300 50.671,234.882 48.631,236.842 38.606,249.132 26.316,256.357 22.675,259.517 18.425,263.158 12.404,275.562 5.466,284.008 1.261,289.474 1.058,290.532 0.000,294.763" pathLength="1" style="--contour-delay:0.018s;--contour-undraw-delay:1.084s"></polyline><polyline fill="none" stroke="#133b6b" stroke-width="0.38" points="500.000,19.119 496.257,22.573 493.452,26.316 486.663,39.295 473.684,46.769 470.540,49.487 467.625,52.632 456.654,61.917 447.368,67.639 439.879,71.458 434.596,78.947 429.792,87.687 421.053,101.647 418.436,102.647 407.200,105.263 397.288,107.814 394.737,108.097 381.662,118.504 381.372,118.628 368.421,125.444 364.439,127.597 361.688,131.579 351.725,141.198 342.105,146.303 333.680,149.470 325.881,157.895 321.076,163.181 315.789,167.581 306.041,174.462 296.882,184.211 293.445,188.182 289.474,193.224 280.334,201.387 274.852,210.526 268.416,215.784 263.158,222.647 254.830,228.514 251.004,236.842 244.939,244.939 236.842,261.206 235.366,261.682 233.188,263.158 219.085,271.717 210.526,287.276 208.195,287.143 186.375,287.309 184.211,287.167 181.325,286.588 166.650,280.718 157.895,279.661 153.289,284.868 145.967,289.474 140.445,298.340 131.579,305.386 123.841,308.051 113.574,307.478 105.263,309.027 92.165,302.572 91.522,302.048 78.947,292.443 75.431,292.990 73.708,289.474 58.730,283.375 52.632,280.553 47.290,284.133 44.067,289.474 44.995,297.111 52.265,315.423 52.339,315.789 51.096,317.325 41.027,330.501 27.851,340.570 26.316,341.812 26.173,341.962 26.093,342.105 25.378,343.043 16.392,358.497 8.533,359.888 0.000,363.941" pathLength="1" style="--contour-delay:0.108s;--contour-undraw-delay:1.047s"></polyline><polyline fill="none" stroke="#133b6b" stroke-width="0.38" points="157.895,458.972 159.215,448.689 163.697,447.368 160.098,445.166 161.204,424.362 160.019,421.053 160.954,417.994 158.966,395.808 160.158,394.737 159.899,392.733 162.718,373.245 162.338,368.421 163.675,362.641 157.895,342.978 152.265,362.792 153.374,368.421 154.863,371.453 156.776,393.618 157.091,394.737 156.923,395.709 155.077,418.235 154.471,421.053 155.694,423.253 156.483,445.956 156.874,447.368 156.362,448.901 157.895,458.972" pathLength="1" style="--contour-delay:0.927s;--contour-undraw-delay:0.703s"></polyline><polyline fill="none" stroke="#133b6b" stroke-width="0.38" points="0.000,379.168 11.253,383.484 19.205,394.737 18.390,402.663 26.316,411.622 36.733,405.154 47.778,394.737 49.533,391.638 52.632,386.516 56.957,372.746 58.427,368.421 66.872,356.345 78.947,347.349 91.301,354.459 93.548,353.820 92.479,355.636 95.873,368.421 99.267,374.417 105.263,379.659 115.049,378.207 124.364,375.636 131.579,374.298 139.474,386.841 141.696,394.737 140.207,403.365 136.301,416.330 135.285,421.053 139.926,429.399 143.903,435.044 147.317,447.368 143.377,459.166 131.579,468.189 128.266,470.372 127.276,473.684 126.382,478.881 131.579,491.903 135.717,495.861 138.171,500.000" pathLength="1" style="--contour-delay:0.539s;--contour-undraw-delay:0.866s"></polyline><polyline fill="none" stroke="#133b6b" stroke-width="0.38" points="500.000,59.971 491.383,61.249 483.236,62.184 473.684,63.716 465.319,70.582 450.425,78.947 448.938,80.517 447.368,82.324 439.446,97.341 434.640,105.263 429.711,113.921 421.053,128.702 418.539,129.065 397.382,128.934 394.737,129.227 393.427,130.270 390.380,131.579 377.295,140.453 368.421,143.177 360.880,150.354 342.241,157.759 342.105,157.831 342.059,157.849 342.016,157.895 341.128,158.872 329.622,171.727 322.602,177.398 315.789,183.068 315.120,183.541 314.491,184.211 306.148,193.852 302.874,197.611 292.591,210.526 291.154,212.207 289.474,212.874 276.510,223.879 266.061,236.842 265.137,238.822 263.158,241.112 253.462,253.462 248.025,263.158 244.220,270.536 236.842,283.580 233.425,286.057 231.095,289.474 222.317,301.265 211.423,314.893 210.712,315.789 210.611,315.874 210.526,316.014 199.497,331.076 196.337,342.105 191.867,349.761 187.221,365.411 186.002,368.421 185.880,370.091 187.807,391.140 187.614,394.737 187.774,398.300 184.211,402.661 174.797,411.639 171.921,421.053 175.161,430.102 184.211,437.472 187.944,443.635 187.309,447.368 186.833,449.991 184.211,452.743 171.278,460.752 164.812,473.684 164.493,480.283 163.186,494.709 162.909,500.000" pathLength="1" style="--contour-delay:0.300s;--contour-undraw-delay:0.966s"></polyline><polyline fill="none" stroke="#133b6b" stroke-width="0.38" points="0.000,474.726 1.343,475.027 23.781,476.219 26.316,477.112 27.387,474.756 27.991,473.684 29.258,470.742 33.030,454.083 39.152,447.368 48.147,442.884 52.632,440.424 58.013,426.434 58.814,421.053 64.192,409.493 64.998,407.104 74.351,394.737 75.484,391.273 78.947,381.450 82.783,390.901 87.494,394.737 98.365,401.635 105.263,410.005 111.517,414.798 112.133,421.053 121.182,431.450 131.579,435.660 136.419,442.528 137.760,447.368 136.212,452.002 131.579,455.545 120.645,462.751 117.375,473.684 115.597,484.019 105.263,494.559 101.066,495.803 99.530,500.000" pathLength="1" style="--contour-delay:0.138s;--contour-undraw-delay:1.034s"></polyline><polyline fill="none" stroke="#133b6b" stroke-width="0.38" points="0.000,400.816 3.455,398.192 3.810,394.737 2.233,392.504 0.000,391.648" pathLength="1" style="--contour-delay:0.462s;--contour-undraw-delay:0.898s"></polyline><polyline fill="none" stroke="#133b6b" stroke-width="0.38" points="500.000,75.743 497.210,76.157 482.782,78.947 475.824,81.087 473.684,81.773 462.242,93.821 452.243,105.263 450.285,108.180 447.368,111.059 439.961,124.172 435.655,131.579 431.308,141.834 427.063,151.885 424.520,157.895 423.371,160.213 421.053,161.700 413.747,165.200 401.471,164.629 401.594,177.353 398.117,184.211 396.370,185.844 394.737,186.478 392.569,186.379 392.701,184.211 390.497,179.970 390.603,162.028 374.006,163.479 368.421,160.923 361.988,164.328 352.204,167.994 342.105,178.569 339.441,181.546 336.142,184.211 325.302,193.723 315.789,202.160 311.895,206.632 308.794,210.526 299.889,220.941 289.474,225.078 283.111,230.479 277.982,236.842 273.264,246.949 263.158,258.640 261.171,261.171 260.057,263.158 256.756,269.560 252.254,278.570 246.248,289.474 242.997,295.628 236.842,311.434 234.995,313.942 233.530,315.789 221.033,326.297 212.907,339.725 211.268,342.105 211.242,342.821 210.526,343.154 200.488,358.382 196.425,368.421 195.594,379.805 195.892,383.056 195.266,394.737 195.782,406.309 184.211,420.473 183.914,420.756 183.823,421.053 183.925,421.338 184.211,421.570 193.944,437.635 192.288,447.368 191.048,454.206 184.211,461.380 176.612,466.085 172.812,473.684 172.235,485.660 172.212,488.001 171.584,500.000" pathLength="1" style="--contour-delay:0.368s;--contour-undraw-delay:0.937s"></polyline><polyline fill="none" stroke="#133b6b" stroke-width="0.38" points="371.036,207.911 368.421,208.017 365.876,207.982 365.145,210.526 366.069,212.878 368.421,214.706 370.284,212.389 371.210,210.526 371.036,207.911" pathLength="1" style="--contour-delay:1.661s;--contour-undraw-delay:0.394s"></polyline><polyline fill="none" stroke="#133b6b" stroke-width="0.38" points="57.459,500.000 72.687,493.740 78.947,491.903 83.055,495.892 81.552,500.000" pathLength="1" style="--contour-delay:0.289s;--contour-undraw-delay:0.971s"></polyline><polyline fill="none" stroke="#133b6b" stroke-width="0.38" points="78.947,460.239 91.516,459.937 93.106,447.368 89.412,436.904 89.647,431.752 87.590,421.053 83.584,416.416 78.947,413.122 75.388,417.493 73.732,421.053 72.819,427.181 73.189,441.610 71.889,447.368 72.477,453.839 78.947,460.239" pathLength="1" style="--contour-delay:0.615s;--contour-undraw-delay:0.834s"></polyline><polyline fill="none" stroke="#133b6b" stroke-width="0.38" points="99.846,479.101 105.263,477.495 107.150,475.571 107.475,473.684 108.418,470.529 105.263,461.721 92.914,461.335 94.563,473.684 99.846,479.101" pathLength="1" style="--contour-delay:0.594s;--contour-undraw-delay:0.843s"></polyline><polyline fill="none" stroke="#133b6b" stroke-width="0.38" points="203.831,500.000 207.687,497.160 210.526,497.579 213.000,497.527 212.530,500.000" pathLength="1" style="--contour-delay:0.738s;--contour-undraw-delay:0.782s"></polyline><polyline fill="none" stroke="#133b6b" stroke-width="0.38" points="500.000,99.502 495.617,100.880 482.240,105.263 476.242,107.821 473.684,110.418 465.715,123.610 457.614,131.579 452.121,136.332 447.368,142.385 442.747,153.273 440.792,157.895 434.325,170.938 434.297,171.139 434.034,171.229 421.053,179.553 417.904,181.062 416.307,184.211 405.159,194.633 394.737,198.682 382.323,198.112 383.149,210.526 378.260,220.365 368.421,232.601 356.000,222.947 351.123,210.526 354.757,197.874 342.105,198.189 335.536,203.957 328.135,210.526 325.605,220.342 315.789,234.606 314.850,235.902 300.140,236.842 290.568,237.936 289.474,238.533 283.473,257.157 278.588,263.158 271.871,271.871 263.158,281.625 260.543,286.859 259.103,289.474 254.560,298.072 251.244,303.876 245.999,315.789 246.083,325.030 236.842,328.348 229.517,334.780 224.475,342.105 224.013,354.934 236.842,361.573 241.339,363.925 240.317,368.421 239.762,371.341 236.842,376.833 231.133,374.130 224.140,368.421 222.846,356.101 210.526,361.829 207.907,365.802 206.847,368.421 206.557,372.390 203.304,387.515 202.917,394.737 203.242,402.021 210.526,409.402 216.189,415.390 215.638,421.053 214.073,424.599 210.526,427.073 199.195,436.037 197.267,447.368 195.262,458.420 184.211,470.016 181.945,471.419 180.813,473.684 180.641,477.254 180.456,496.246 180.260,500.000" pathLength="1" style="--contour-delay:0.463s;--contour-undraw-delay:0.898s"></polyline><polyline fill="none" stroke="#133b6b" stroke-width="0.38" points="230.751,479.775 236.842,479.864 240.208,477.050 240.463,473.684 239.884,470.642 236.842,469.871 233.584,470.426 229.634,473.684 230.751,479.775" pathLength="1" style="--contour-delay:0.911s;--contour-undraw-delay:0.709s"></polyline><polyline fill="none" stroke="#133b6b" stroke-width="0.38" points="265.935,344.882 273.348,342.105 266.105,339.158 263.158,338.753 257.997,336.945 257.899,342.105 259.614,345.649 263.158,344.671 265.935,344.882" pathLength="1" style="--contour-delay:1.895s;--contour-undraw-delay:0.296s"></polyline><polyline fill="none" stroke="#133b6b" stroke-width="0.38" points="317.909,500.000 317.726,498.064 315.789,496.579 313.336,497.547 310.697,500.000" pathLength="1" style="--contour-delay:0.703s;--contour-undraw-delay:0.797s"></polyline><polyline fill="none" stroke="#133b6b" stroke-width="0.38" points="376.096,289.474 372.639,285.256 368.421,284.457 357.311,278.363 353.986,277.593 352.784,273.837 346.251,263.158 346.385,258.878 342.105,256.394 337.233,258.286 337.469,263.158 337.608,267.655 335.150,282.518 335.296,289.474 335.819,295.760 342.105,298.056 352.380,299.749 359.537,298.357 368.421,302.029 373.102,294.155 376.096,289.474" pathLength="1" style="--contour-delay:1.632s;--contour-undraw-delay:0.407s"></polyline><polyline fill="none" stroke="#133b6b" stroke-width="0.38" points="377.188,175.444 368.421,171.430 360.064,175.854 351.964,184.211 355.536,197.096 368.421,197.275 380.979,196.768 381.746,184.211 377.188,175.444" pathLength="1" style="--contour-delay:1.520s;--contour-undraw-delay:0.454s"></polyline><polyline fill="none" stroke="#133b6b" stroke-width="0.38" points="453.355,210.526 450.143,207.752 447.368,204.901 444.224,207.382 444.527,210.526 444.932,212.963 447.368,220.988 450.318,213.476 453.355,210.526" pathLength="1" style="--contour-delay:1.083s;--contour-undraw-delay:0.637s"></polyline><polyline fill="none" stroke="#133b6b" stroke-width="0.38" points="301.335,327.650 299.734,315.789 304.488,304.488 315.789,298.096 321.687,295.371 321.196,289.474 321.085,284.178 316.767,264.135 316.736,263.158 316.693,262.255 315.789,261.947 314.864,262.232 313.487,263.158 300.490,274.175 289.474,277.181 284.185,284.185 279.503,289.474 273.233,299.549 263.158,303.477 258.682,311.313 256.711,315.789 256.769,322.179 263.158,324.417 273.162,325.793 279.921,325.343 289.474,327.472 301.335,327.650" pathLength="1" style="--contour-delay:1.918s;--contour-undraw-delay:0.286s"></polyline><polyline fill="none" stroke="#133b6b" stroke-width="0.38" points="289.474,447.919 289.811,447.706 289.847,447.368 290.064,446.778 289.474,446.168 289.116,447.011 286.837,447.368 289.144,447.698 289.474,447.919" pathLength="1" style="--contour-delay:1.122s;--contour-undraw-delay:0.621s"></polyline><polyline fill="none" stroke="#133b6b" stroke-width="0.38" points="325.171,500.000 324.360,491.429 315.789,484.858 304.930,489.141 293.247,500.000" pathLength="1" style="--contour-delay:0.688s;--contour-undraw-delay:0.803s"></polyline><polyline fill="none" stroke="#133b6b" stroke-width="0.38" points="315.789,422.580 316.847,422.110 317.088,421.053 317.946,418.896 315.789,408.964 314.360,419.623 311.319,421.053 313.586,423.256 315.789,422.580" pathLength="1" style="--contour-delay:1.247s;--contour-undraw-delay:0.568s"></polyline><polyline fill="none" stroke="#133b6b" stroke-width="0.38" points="381.111,263.158 380.265,251.314 368.421,257.784 364.901,259.638 364.791,263.158 366.169,265.410 368.421,266.645 372.723,267.460 381.111,263.158" pathLength="1" style="--contour-delay:1.635s;--contour-undraw-delay:0.405s"></polyline><polyline fill="none" stroke="#133b6b" stroke-width="0.38" points="369.980,182.652 368.421,181.938 366.935,182.725 365.495,184.211 366.130,186.502 368.421,186.534 370.654,186.443 370.790,184.211 369.980,182.652" pathLength="1" style="--contour-delay:1.592s;--contour-undraw-delay:0.423s"></polyline><polyline fill="none" stroke="#133b6b" stroke-width="0.38" points="500.000,125.637 496.182,127.760 492.405,131.579 484.571,142.466 473.684,146.477 467.630,151.840 462.686,157.895 462.722,168.857 463.517,174.043 463.563,184.211 468.560,189.335 473.684,193.813 480.940,203.270 480.498,210.526 480.706,217.548 473.684,224.594 467.499,230.657 464.173,236.842 455.116,244.590 447.368,249.534 435.920,248.291 428.024,236.842 426.811,231.084 425.730,215.203 424.952,210.526 424.609,206.970 421.053,204.939 418.101,207.574 398.121,210.526 395.966,211.755 394.737,211.601 387.607,229.712 382.235,236.842 381.980,249.599 394.737,257.016 401.133,256.762 411.115,263.158 403.924,272.345 404.956,279.255 402.450,289.474 398.282,293.019 394.737,302.369 389.453,310.505 386.254,315.789 375.952,323.321 368.421,331.289 357.510,331.194 349.438,342.105 345.990,345.990 347.209,363.318 345.729,368.421 346.677,372.993 342.105,387.492 337.306,373.220 338.865,368.421 337.691,364.007 338.813,345.398 336.535,342.105 327.736,330.158 315.789,329.773 303.598,329.913 301.995,342.105 296.399,349.031 289.474,362.181 281.462,360.410 275.033,356.546 263.158,355.642 253.143,358.406 250.868,368.421 248.627,380.206 245.510,386.069 242.535,394.737 239.020,396.915 236.842,397.791 225.428,406.151 211.943,396.154 223.357,408.222 222.108,421.053 218.562,429.089 210.526,434.695 203.450,440.292 202.246,447.368 200.411,457.483 203.735,466.893 197.864,473.684 203.281,480.930 210.526,481.998 218.668,481.825 217.175,473.684 227.953,464.795 236.842,463.279 245.144,465.383 246.724,473.684 246.027,482.869 236.842,490.546 227.248,490.406 225.428,500.000" pathLength="1" style="--contour-delay:0.555s;--contour-undraw-delay:0.859s"></polyline><polyline fill="none" stroke="#133b6b" stroke-width="0.38" points="500.000,401.031 497.188,397.549 488.490,394.737 498.540,393.277 500.000,393.298" pathLength="1" style="--contour-delay:0.461s;--contour-undraw-delay:0.898s"></polyline><polyline fill="none" stroke="#133b6b" stroke-width="0.38" points="210.526,462.817 220.165,457.007 225.608,458.603 236.842,456.687 249.324,459.850 253.904,447.368 257.358,441.569 263.158,439.986 275.860,433.754 284.518,421.053 285.114,416.693 289.474,416.337 302.107,407.370 308.059,394.737 306.455,385.402 315.789,382.551 324.531,377.163 327.371,368.421 324.938,359.273 315.789,348.236 306.587,359.219 301.154,368.421 298.595,377.542 289.474,375.735 280.562,377.333 267.634,368.421 264.838,366.741 263.158,366.613 261.741,367.004 261.419,368.421 261.011,370.568 261.982,393.561 261.578,394.737 246.307,404.201 236.842,408.006 229.311,413.522 228.579,421.053 223.051,433.578 210.526,442.316 207.705,444.547 207.225,447.368 206.494,451.401 210.526,462.817" pathLength="1" style="--contour-delay:1.015s;--contour-undraw-delay:0.666s"></polyline><polyline fill="none" stroke="#133b6b" stroke-width="0.38" points="263.158,497.113 269.514,493.644 279.141,489.667 289.474,479.370 292.489,476.700 311.110,473.684 301.906,461.251 289.474,469.107 276.470,460.372 276.111,460.321 263.158,455.803 250.592,461.118 252.984,473.684 252.148,484.694 263.158,497.113" pathLength="1" style="--contour-delay:0.788s;--contour-undraw-delay:0.761s"></polyline><polyline fill="none" stroke="#133b6b" stroke-width="0.38" points="500.000,438.334 488.949,432.104 479.151,421.053 476.597,418.140 473.684,416.626 466.742,414.111 457.692,410.729 447.368,407.120 441.226,400.880 421.406,395.091 421.053,394.921 420.876,394.914 395.345,395.345 394.737,395.322 393.943,395.530 372.998,399.313 368.421,400.820 360.745,402.413 351.650,404.282 342.105,406.272 332.556,411.503 328.756,421.053 326.351,431.614 315.789,436.303 307.323,438.902 304.209,447.368 302.834,460.324 315.789,472.243 318.318,471.156 335.043,466.622 342.105,461.237 344.049,471.741 344.361,473.684 344.623,476.202 342.105,477.525 331.423,489.317 332.434,500.000" pathLength="1" style="--contour-delay:0.308s;--contour-undraw-delay:0.963s"></polyline><polyline fill="none" stroke="#133b6b" stroke-width="0.38" points="500.000,379.526 489.052,379.369 483.673,378.410 473.684,378.212 461.643,380.462 459.654,380.706 447.368,383.395 438.404,385.772 421.884,393.905 421.053,394.222 419.805,393.490 398.308,391.166 400.479,374.163 398.118,368.421 397.168,365.990 394.737,365.495 390.715,364.399 391.212,368.421 384.182,378.975 386.038,386.038 380.814,382.344 368.421,384.682 360.274,376.569 358.583,368.421 360.795,360.795 368.421,352.722 377.080,350.764 377.726,342.105 386.029,333.397 394.737,326.710 401.703,322.756 402.338,315.789 408.943,303.680 421.053,292.784 423.744,292.165 428.134,289.474 436.780,278.885 447.368,268.454 450.467,266.257 452.450,263.158 465.803,255.277 473.684,248.709 482.594,245.751 490.827,246.015 500.000,244.277" pathLength="1" style="--contour-delay:0.538s;--contour-undraw-delay:0.866s"></polyline><polyline fill="none" stroke="#133b6b" stroke-width="0.38" points="500.000,352.517 489.086,353.019 483.776,352.197 473.684,352.909 468.039,347.751 467.125,342.105 469.262,337.683 473.684,330.673 486.610,328.716 487.120,328.670 500.000,326.916" pathLength="1" style="--contour-delay:0.621s;--contour-undraw-delay:0.831s"></polyline><polyline fill="none" stroke="#133b6b" stroke-width="0.38" points="500.000,199.073 494.283,204.809 493.934,210.526 494.109,216.418 500.000,221.686" pathLength="1" style="--contour-delay:0.731s;--contour-undraw-delay:0.785s"></polyline><polyline fill="none" stroke="#133b6b" stroke-width="0.38" points="263.158,482.697 268.988,479.515 274.833,473.684 268.258,468.584 263.158,466.806 258.324,468.850 259.244,473.684 258.923,477.919 263.158,482.697" pathLength="1" style="--contour-delay:0.893s;--contour-undraw-delay:0.717s"></polyline><polyline fill="none" stroke="#133b6b" stroke-width="0.38" points="233.555,450.656 236.842,450.095 240.494,451.021 241.835,447.368 249.184,435.027 248.818,433.028 250.362,433.848 263.158,430.358 269.400,427.295 273.656,421.053 275.317,408.894 263.158,407.550 254.446,412.340 241.577,416.318 236.842,418.221 235.208,419.418 235.049,421.053 233.632,424.262 232.566,443.092 222.341,447.368 233.555,450.656" pathLength="1" style="--contour-delay:1.126s;--contour-undraw-delay:0.619s"></polyline><polyline fill="none" stroke="#133b6b" stroke-width="0.38" points="289.474,405.998 296.060,401.323 299.163,394.737 297.742,386.468 289.474,384.830 281.073,386.336 275.187,394.737 277.210,407.001 289.474,405.998" pathLength="1" style="--contour-delay:1.421s;--contour-undraw-delay:0.495s"></polyline><polyline fill="none" stroke="#133b6b" stroke-width="0.38" points="315.789,368.528 315.856,368.487 315.877,368.421 315.859,368.352 315.789,368.269 315.720,368.352 315.679,368.421 315.636,368.575 315.789,368.528" pathLength="1" style="--contour-delay:1.607s;--contour-undraw-delay:0.417s"></polyline><polyline fill="none" stroke="#133b6b" stroke-width="0.38" points="350.692,500.000 353.897,488.209 342.105,494.401 339.444,497.339 339.696,500.000" pathLength="1" style="--contour-delay:0.626s;--contour-undraw-delay:0.829s"></polyline><polyline fill="none" stroke="#133b6b" stroke-width="0.38" points="470.125,500.000 471.425,497.741 469.628,477.741 470.576,473.684 468.090,468.090 468.554,452.499 449.015,449.015 447.368,448.033 446.222,448.515 426.023,452.339 421.053,457.213 413.945,454.476 414.735,447.368 416.586,442.902 421.053,440.000 432.632,435.789 440.319,440.319 435.995,432.426 440.722,421.053 430.937,411.168 421.053,406.432 409.834,405.955 406.020,406.020 394.737,405.591 382.495,408.811 379.420,410.054 368.421,413.674 362.310,414.942 344.457,418.701 342.105,419.191 340.903,419.850 340.424,421.053 339.928,423.230 342.105,425.311 350.365,439.109 349.823,447.368 351.376,456.639 352.590,463.200 354.274,473.684 355.608,486.497 368.421,491.465 377.634,490.787 381.968,500.000" pathLength="1" style="--contour-delay:0.160s;--contour-undraw-delay:1.025s"></polyline><polyline fill="none" stroke="#133b6b" stroke-width="0.38" points="394.737,480.239 397.916,476.864 400.153,473.684 399.177,469.244 394.737,470.514 392.662,471.609 391.303,473.684 389.184,479.237 394.737,480.239" pathLength="1" style="--contour-delay:0.608s;--contour-undraw-delay:0.837s"></polyline><polyline fill="none" stroke="#133b6b" stroke-width="0.38" points="461.691,315.789 459.142,304.016 447.368,298.858 435.595,304.016 432.852,303.990 421.053,306.706 416.271,311.008 413.663,315.789 412.923,323.919 421.053,330.168 430.581,332.577 444.136,342.105 444.289,345.184 447.368,347.021 449.030,343.767 448.761,342.105 450.064,339.409 456.376,324.797 461.691,315.789" pathLength="1" style="--contour-delay:0.976s;--contour-undraw-delay:0.682s"></polyline><polyline fill="none" stroke="#133b6b" stroke-width="0.38" points="478.334,500.000 484.360,489.324 485.559,485.559 490.606,483.078 500.000,476.597" pathLength="1" style="--contour-delay:0.120s;--contour-undraw-delay:1.042s"></polyline><polyline fill="none" stroke="#133b6b" stroke-width="0.38" points="500.000,306.309 487.165,302.309 474.848,289.474 475.479,287.678 480.273,269.747 483.286,263.158 494.322,257.480 500.000,256.404" pathLength="1" style="--contour-delay:0.723s;--contour-undraw-delay:0.788s"></polyline><polyline fill="none" stroke="#133b6b" stroke-width="0.38" points="289.474,395.659 290.013,395.276 290.268,394.737 290.151,394.059 289.474,393.925 288.785,394.049 288.303,394.737 288.469,395.742 289.474,395.659" pathLength="1" style="--contour-delay:1.495s;--contour-undraw-delay:0.464s"></polyline><polyline fill="none" stroke="#133b6b" stroke-width="0.38" points="373.377,478.641 375.268,473.684 382.973,461.920 394.737,455.710 401.224,453.855 401.944,447.368 407.049,435.056 406.959,433.275 409.544,432.561 421.053,425.082 424.007,424.007 425.235,421.053 423.155,418.951 421.053,417.944 417.806,417.806 399.738,416.051 394.737,415.861 390.626,416.942 380.456,421.053 375.548,428.179 368.421,430.204 360.670,439.618 360.161,447.368 361.346,454.443 363.377,468.641 364.188,473.684 364.587,477.518 368.421,479.005 373.377,478.641" pathLength="1" style="--contour-delay:0.697s;--contour-undraw-delay:0.799s"></polyline><polyline fill="none" stroke="#133b6b" stroke-width="0.38" points="451.082,500.000 456.113,491.256 459.909,486.225 462.840,473.684 458.080,462.972 447.368,456.583 435.332,461.647 423.153,473.684 423.955,476.587 421.053,481.244 413.584,492.531 406.619,500.000" pathLength="1" style="--contour-delay:0.250s;--contour-undraw-delay:0.987s"></polyline><polyline fill="none" stroke="#133b6b" stroke-width="0.38" points="500.000,290.853 498.948,290.525 497.939,289.474 498.476,287.949 500.000,285.062" pathLength="1" style="--contour-delay:0.745s;--contour-undraw-delay:0.779s"></polyline><polyline fill="none" stroke="#133b6b" stroke-width="0.38" points="447.368,488.264 453.639,479.955 455.104,473.684 452.724,468.328 447.368,465.134 441.350,467.666 435.261,473.684 437.882,483.171 447.368,488.264" pathLength="1" style="--contour-delay:0.334s;--contour-undraw-delay:0.952s"></polyline><rect x="0" y="0" width="500" height="500" fill="none" stroke="black" stroke-width="1"></rect><rect x="510" y="0" width="20" height="20" fill="rgb(0,0,255)"></rect> <text x="535" y="15">-16 m</text><rect x="510" y="24" width="20" height="20" fill="rgb(0,93,255)"></rect> <text x="535" y="39">13 m</text><rect x="510" y="48" width="20" height="20" fill="rgb(0,186,255)"></rect> <text x="535" y="63">43 m</text><rect x="510" y="72" width="20" height="20" fill="rgb(0,255,232)"></rect> <text x="535" y="87">72 m</text><rect x="510" y="96" width="20" height="20" fill="rgb(0,255,139)"></rect> <text x="535" y="111">101 m</text><rect x="510" y="120" width="20" height="20" fill="rgb(0,255,46)"></rect> <text x="535" y="135">131 m</text><rect x="510" y="144" width="20" height="20" fill="rgb(46,255,0)"></rect> <text x="535" y="159">160 m</text><rect x="510" y="168" width="20" height="20" fill="rgb(139,255,0)"></rect> <text x="535" y="183">189 m</text><rect x="510" y="192" width="20" height="20" fill="rgb(232,255,0)"></rect> <text x="535" y="207">218 m</text><rect x="510" y="216" width="20" height="20" fill="rgb(255,186,0)"></rect> <text x="535" y="231">248 m</text><rect x="510" y="240" width="20" height="20" fill="rgb(255,93,0)"></rect> <text x="535" y="255">277 m</text><rect x="510" y="264" width="20" height="20" fill="rgb(255,0,0)"></rect> <text x="535" y="279">306 m</text></svg>